<mxfile host="app.diagrams.net" agent="Mozilla/5.0 (Windows NT 10.0; Win64; x64) AppleWebKit/537.36 (KHTML, like Gecko) Chrome/134.0.0.0 Safari/537.36" version="26.1.1">
  <diagram name="Page-1" id="vVDoRRSHyycKKWvNqNk3">
    <mxGraphModel dx="1120" dy="1603" grid="1" gridSize="10" guides="1" tooltips="1" connect="1" arrows="1" fold="1" page="1" pageScale="1" pageWidth="827" pageHeight="1169" math="0" shadow="0">
      <root>
        <mxCell id="0" />
        <mxCell id="1" parent="0" />
        <mxCell id="rvu8hOpaD9RlhcbGkpi--7" value="&lt;b&gt;Utilisateur&lt;/b&gt;" style="swimlane;fontStyle=0;childLayout=stackLayout;horizontal=1;startSize=30;horizontalStack=0;resizeParent=1;resizeParentMax=0;resizeLast=0;collapsible=1;marginBottom=0;whiteSpace=wrap;html=1;fillColor=#FF9933;" vertex="1" parent="1">
          <mxGeometry x="100" y="40" width="140" height="130" as="geometry" />
        </mxCell>
        <mxCell id="rvu8hOpaD9RlhcbGkpi--8" value="&lt;u&gt;ID_utilisateur&lt;/u&gt;" style="text;strokeColor=none;fillColor=#FFE6CC;align=left;verticalAlign=middle;spacingLeft=4;spacingRight=4;overflow=hidden;points=[[0,0.5],[1,0.5]];portConstraint=eastwest;rotatable=0;whiteSpace=wrap;html=1;" vertex="1" parent="rvu8hOpaD9RlhcbGkpi--7">
          <mxGeometry y="30" width="140" height="30" as="geometry" />
        </mxCell>
        <mxCell id="rvu8hOpaD9RlhcbGkpi--9" value="Nom&lt;div&gt;Email&lt;/div&gt;&lt;div&gt;Mot_de_passe&lt;/div&gt;&lt;div&gt;Date_inscription&lt;/div&gt;" style="text;strokeColor=none;fillColor=#FFE6CC;align=left;verticalAlign=middle;spacingLeft=4;spacingRight=4;overflow=hidden;points=[[0,0.5],[1,0.5]];portConstraint=eastwest;rotatable=0;whiteSpace=wrap;html=1;" vertex="1" parent="rvu8hOpaD9RlhcbGkpi--7">
          <mxGeometry y="60" width="140" height="70" as="geometry" />
        </mxCell>
        <mxCell id="rvu8hOpaD9RlhcbGkpi--11" value="&lt;b&gt;Grille&lt;/b&gt;" style="swimlane;fontStyle=0;childLayout=stackLayout;horizontal=1;startSize=30;horizontalStack=0;resizeParent=1;resizeParentMax=0;resizeLast=0;collapsible=1;marginBottom=0;whiteSpace=wrap;html=1;fillColor=#FFFF33;" vertex="1" parent="1">
          <mxGeometry x="344" y="40" width="140" height="130" as="geometry" />
        </mxCell>
        <mxCell id="rvu8hOpaD9RlhcbGkpi--12" value="&lt;u&gt;ID_grille&lt;/u&gt;" style="text;strokeColor=none;fillColor=#FFFFCC;align=left;verticalAlign=middle;spacingLeft=4;spacingRight=4;overflow=hidden;points=[[0,0.5],[1,0.5]];portConstraint=eastwest;rotatable=0;whiteSpace=wrap;html=1;" vertex="1" parent="rvu8hOpaD9RlhcbGkpi--11">
          <mxGeometry y="30" width="140" height="30" as="geometry" />
        </mxCell>
        <mxCell id="rvu8hOpaD9RlhcbGkpi--13" value="Titre&lt;br&gt;&lt;div&gt;Niveau_difficultÃ©&lt;/div&gt;&lt;div&gt;Date_publication&lt;/div&gt;" style="text;strokeColor=none;fillColor=#FFFFCC;align=left;verticalAlign=middle;spacingLeft=4;spacingRight=4;overflow=hidden;points=[[0,0.5],[1,0.5]];portConstraint=eastwest;rotatable=0;whiteSpace=wrap;html=1;" vertex="1" parent="rvu8hOpaD9RlhcbGkpi--11">
          <mxGeometry y="60" width="140" height="70" as="geometry" />
        </mxCell>
        <mxCell id="rvu8hOpaD9RlhcbGkpi--14" value="&lt;b&gt;Utilisateur&lt;/b&gt;" style="swimlane;fontStyle=0;childLayout=stackLayout;horizontal=1;startSize=30;horizontalStack=0;resizeParent=1;resizeParentMax=0;resizeLast=0;collapsible=1;marginBottom=0;whiteSpace=wrap;html=1;fillColor=#FF9933;" vertex="1" parent="1">
          <mxGeometry x="380" y="-630" width="140" height="130" as="geometry" />
        </mxCell>
        <mxCell id="rvu8hOpaD9RlhcbGkpi--15" value="&lt;u&gt;ID_utilisateur&lt;/u&gt;" style="text;strokeColor=none;fillColor=#FFE6CC;align=left;verticalAlign=middle;spacingLeft=4;spacingRight=4;overflow=hidden;points=[[0,0.5],[1,0.5]];portConstraint=eastwest;rotatable=0;whiteSpace=wrap;html=1;" vertex="1" parent="rvu8hOpaD9RlhcbGkpi--14">
          <mxGeometry y="30" width="140" height="30" as="geometry" />
        </mxCell>
        <mxCell id="rvu8hOpaD9RlhcbGkpi--16" value="Nom&lt;div&gt;Email&lt;/div&gt;&lt;div&gt;Mot_de_passe&lt;/div&gt;&lt;div&gt;Date_inscription&lt;/div&gt;" style="text;strokeColor=none;fillColor=#FFE6CC;align=left;verticalAlign=middle;spacingLeft=4;spacingRight=4;overflow=hidden;points=[[0,0.5],[1,0.5]];portConstraint=eastwest;rotatable=0;whiteSpace=wrap;html=1;" vertex="1" parent="rvu8hOpaD9RlhcbGkpi--14">
          <mxGeometry y="60" width="140" height="70" as="geometry" />
        </mxCell>
      </root>
    </mxGraphModel>
  </diagram>
</mxfile>
